<?xml version="1.0" encoding="UTF-8"?><svg id="uuid-31fe7049-9f23-4b30-b7a5-5c8c74efcd54" xmlns="http://www.w3.org/2000/svg" viewBox="0 0 324.71 79.876"><path d="M154.911,15.807h-7.538v44.931h7.538V15.807Z" fill="#231f20"/><path d="M129.64,15.807h-28.608c-4.589,0-8.307,3.694-8.307,8.253v36.671h7.537v-14.975h30.156v14.975h7.538V24.059c0-4.559-3.719-8.253-8.308-8.253h-.006ZM100.255,38.269v-12.026c0-1.631,1.326-2.948,2.968-2.948h24.22c1.642,0,2.968,1.318,2.968,2.948v12.026h-30.156Z" fill="#231f20"/><path d="M183.584,61.521c-1.482,0-2.945-.275-4.39-.826s-2.622-1.32-3.533-2.309h-.114v16.018h-13.053V30.742h12.368v3.021h.114c1.102-1.254,2.432-2.204,3.99-2.851,1.558-.646,3.078-.969,4.56-.969,2.242,0,4.219.456,5.929,1.368s3.135,2.108,4.274,3.591c1.141,1.481,2.004,3.154,2.594,5.016.589,1.862.884,3.763.884,5.7,0,1.977-.295,3.914-.884,5.814-.59,1.9-1.453,3.6-2.594,5.102-1.14,1.501-2.556,2.707-4.246,3.619-1.691.912-3.658,1.367-5.899,1.367ZM185.009,45.619c0-1.33-.419-2.488-1.254-3.477-.837-.988-2.052-1.482-3.648-1.482-1.559,0-2.803.494-3.733,1.482-.932.988-1.396,2.146-1.396,3.477,0,1.406.465,2.604,1.396,3.591.931.989,2.175,1.481,3.733,1.481,1.597,0,2.812-.484,3.648-1.453.835-.969,1.254-2.175,1.254-3.619Z" fill="#53c6d6"/><path d="M199.772,30.742h12.653v3.42h.114c.646-1.216,1.604-2.223,2.879-3.021,1.272-.797,2.764-1.196,4.474-1.196,1.026,0,1.861.095,2.509.284l-1.026,11.172c-.419-.113-.884-.199-1.396-.256s-.979-.086-1.396-.086c-1.71,0-3.078.494-4.104,1.482-1.025.988-1.538,2.205-1.538,3.648v14.535h-13.167v-29.982Z" fill="#53c6d6"/><path d="M222.685,22.078c0-.912.181-1.775.542-2.594.36-.816.854-1.529,1.481-2.137.628-.607,1.358-1.092,2.195-1.454.835-.36,1.729-.542,2.679-.542.912,0,1.767.182,2.564.542.799.362,1.511.847,2.138,1.454s1.121,1.32,1.482,2.137c.36.818.541,1.682.541,2.594,0,.95-.181,1.834-.541,2.65-.361.818-.855,1.521-1.482,2.109-.627.59-1.339,1.055-2.138,1.396-.798.342-1.652.513-2.564.513-.95,0-1.844-.171-2.679-.513-.837-.342-1.567-.807-2.195-1.396-.627-.589-1.121-1.291-1.481-2.109-.361-.816-.542-1.7-.542-2.65ZM222.913,30.742h13.167v29.982h-13.167v-29.982Z" fill="#53c6d6"/><path d="M258.252,60.724v-15.732c0-1.52-.19-2.622-.57-3.307-.38-.684-1.007-1.025-1.881-1.025-.646,0-1.264.305-1.853.912-.59.607-.883,1.691-.883,3.249v15.903h-13.167v-29.982h12.824v3.307h.114c.38-.494.846-.979,1.396-1.454.551-.475,1.178-.912,1.881-1.312.703-.398,1.491-.721,2.365-.969.874-.246,1.824-.37,2.851-.37,1.976,0,3.686.352,5.13,1.054,1.443.704,2.584,1.796,3.42,3.277.987-1.215,2.203-2.241,3.648-3.077,1.443-.835,3.268-1.254,5.472-1.254,2.128,0,3.885.419,5.272,1.254,1.387.836,2.488,1.881,3.306,3.135s1.387,2.613,1.71,4.075c.323,1.464.485,2.822.485,4.076v18.24h-13.168v-15.961c0-1.633-.199-2.726-.598-3.277-.399-.551-1.018-.826-1.853-.826-.761,0-1.406.352-1.938,1.055s-.798,1.738-.798,3.106v15.903h-13.167Z" fill="#53c6d6"/><path d="M324.543,46.017c0,.494-.01.998-.029,1.512-.02.512-.048.939-.085,1.281h-20.178c.037.533.218,1.008.541,1.426.322.418.722.779,1.197,1.083.475.304,1.006.532,1.596.684.589.152,1.188.228,1.796.228,1.216,0,2.231-.218,3.049-.654.817-.438,1.435-.922,1.853-1.454l9.349,4.731c-1.331,2.166-3.259,3.875-5.786,5.129-2.527,1.255-5.463,1.882-8.807,1.882-2.166,0-4.274-.343-6.326-1.026-2.053-.684-3.867-1.7-5.444-3.049s-2.841-3.03-3.79-5.045c-.95-2.014-1.425-4.351-1.425-7.012,0-2.469.437-4.701,1.311-6.697.874-1.994,2.062-3.686,3.562-5.072s3.268-2.46,5.301-3.221c2.033-.76,4.209-1.141,6.527-1.141,2.355,0,4.503.409,6.44,1.227,1.938.816,3.6,1.957,4.987,3.42,1.387,1.463,2.46,3.201,3.221,5.215.76,2.015,1.141,4.199,1.141,6.555ZM313.199,41.743c0-1.063-.39-1.938-1.168-2.622-.779-.684-1.834-1.025-3.164-1.025-1.444,0-2.564.398-3.362,1.196-.799.798-1.254,1.616-1.368,2.451h9.062Z" fill="#53c6d6"/><path d="M61.423,22.605h-7.455v-6.997c0-8.606-7.001-15.608-15.608-15.608s-15.608,7.002-15.608,15.608v6.997h-7.146c-8.606,0-15.608,7.002-15.608,15.608s7.002,15.608,15.608,15.608h7.146v6.997c0,8.606,7.002,15.608,15.608,15.608s15.608-7.002,15.608-15.607v-6.997h7.455c8.606,0,15.608-7.002,15.608-15.608s-7.002-15.608-15.608-15.608ZM15.608,47.373c-5.051,0-9.161-4.109-9.161-9.161s4.109-9.161,9.161-9.161h7.146v18.321h-7.146ZM47.521,60.817c0,5.051-4.109,9.161-9.161,9.161s-9.161-4.109-9.161-9.161v-6.997h14.465v-6.447h-14.465V15.608c0-5.051,4.109-9.161,9.161-9.161s9.161,4.109,9.161,9.161v10.122c-2.607-1.913-5.821-3.043-9.295-3.043h-5.119v6.447h5.119c5.127,0,9.298,4.171,9.298,9.298l-.004,22.386ZM61.423,47.373h-7.453v-8.941c.001-3.512-1.154-6.758-3.105-9.38h10.558c5.051,0,9.161,4.11,9.161,9.161s-4.109,9.161-9.161,9.161Z" fill="#231f20"/><path d="M255.951,69.674v4.801c0,1.08-.869,1.949-1.949,1.949h-6.9v-11.549h1.62v2.85h5.28c1.08,0,1.949.869,1.949,1.949ZM254.331,69.674c0-.18-.15-.33-.33-.33h-4.95c-.18,0-.33.15-.33.33v4.801c0,.18.15.33.33.33h4.95c.18,0,.33-.15.33-.33v-4.801Z" fill="#231f20"/><path d="M265.776,73.126v4.799c0,1.08-.87,1.951-1.95,1.951h-5.369v-1.621h5.369c.181,0,.33-.15.33-.33v-1.5h-5.279c-1.08,0-1.95-.869-1.95-1.949v-6.721h1.62v6.721c0,.18.149.33.33.33h4.949c.181,0,.33-.15.33-.33v-6.721h1.62v5.371Z" fill="#231f20"/><path d="M280.641,65.626c1.08,0,1.95.869,1.95,1.949v8.85h-1.62v-3.779h-7.56v3.779h-1.62v-8.85c0-1.08.87-1.949,1.95-1.949h6.899ZM280.971,71.026v-3.451c0-.18-.15-.33-.33-.33h-6.899c-.181,0-.33.15-.33.33v3.451h7.56Z" fill="#231f20"/><path d="M284.316,65.626h1.62v10.799h-1.62v-10.799Z" fill="#231f20"/><path d="M297.906,65.626h1.935v10.799h-1.619v-8.639l-4.5,5.354-4.5-5.354v8.639h-1.62v-10.799h1.92l4.2,4.994,4.185-4.994Z" fill="#231f20"/><path d="M310.401,65.626c1.08,0,1.95.869,1.95,1.949v8.85h-1.62v-3.779h-7.56v3.779h-1.62v-8.85c0-1.08.87-1.949,1.95-1.949h6.899ZM310.731,71.026v-3.451c0-.18-.15-.33-.33-.33h-6.899c-.181,0-.33.15-.33.33v3.451h7.56Z" fill="#231f20"/><path d="M324.71,65.626v.225l-4.35,5.176,4.35,5.174v.225h-1.92l-3.479-4.139-3.479,4.139h-1.92v-.225l4.334-5.174-4.334-5.176v-.225h1.92l3.479,4.139,3.479-4.139h1.92Z" fill="#231f20"/></svg>