<?xml version="1.0" encoding="UTF-8"?><svg id="uuid-74b33be9-242f-4625-826e-b2a7ac67b1e6" xmlns="http://www.w3.org/2000/svg" viewBox="0 0 77.031 76.424"><path d="M61.423,22.605h-7.455v-6.997c0-8.606-7.001-15.608-15.608-15.608s-15.608,7.002-15.608,15.608v6.997h-7.146c-8.606,0-15.608,7.002-15.608,15.608s7.002,15.608,15.608,15.608h7.146v6.997c0,8.606,7.002,15.608,15.608,15.608s15.608-7.002,15.608-15.607v-6.997h7.455c8.606,0,15.608-7.002,15.608-15.608s-7.002-15.608-15.608-15.608ZM15.608,47.373c-5.051,0-9.161-4.109-9.161-9.161s4.109-9.161,9.161-9.161h7.146v18.321h-7.146ZM47.521,60.817c0,5.051-4.109,9.161-9.161,9.161s-9.161-4.109-9.161-9.161v-6.997h14.465v-6.447h-14.465V15.608c0-5.051,4.109-9.161,9.161-9.161s9.161,4.109,9.161,9.161v10.122c-2.607-1.913-5.821-3.043-9.295-3.043h-5.119v6.447h5.119c5.127,0,9.298,4.171,9.298,9.298l-.004,22.386ZM61.423,47.373h-7.453v-8.941c.001-3.512-1.154-6.758-3.105-9.38h10.558c5.051,0,9.161,4.11,9.161,9.161s-4.109,9.161-9.161,9.161Z" fill="#fff"/></svg>