<svg width="151" height="30" viewBox="0 0 151 30" fill="none" xmlns="http://www.w3.org/2000/svg">
<path d="M76.2954 0H75.0413L63.7859 13.2958L52.526 0H51.2764H46.2734V30H51.2764V6.07021L63.7859 21.2502L76.2954 6.07021V30H81.2983V0H76.2954Z" fill="black"/>
<path d="M41.2724 0H36.2695V30H41.2724V0Z" fill="black"/>
<path d="M24.5032 0H5.51432C2.4681 0 0 2.4663 0 5.5103V29.9955H5.00292V19.997H25.019V29.9955H30.0219V5.5103C30.0219 2.4663 27.5538 0 24.5076 0H24.5032ZM4.99848 14.9978V6.96786C4.99848 5.87913 5.87899 4.99926 6.96851 4.99926H23.0445C24.1341 4.99926 25.0146 5.87913 25.0146 6.96786V14.9978H4.99848Z" fill="black"/>
<path d="M112.066 0H93.0768C90.0306 0 87.5625 2.4663 87.5625 5.5103V29.9955H92.5654V19.997H112.582V29.9955H117.584V5.5103C117.584 2.4663 115.116 0 112.07 0H112.066ZM92.561 14.9978V6.96786C92.561 5.87913 93.4415 4.99926 94.531 4.99926H110.607C111.697 4.99926 112.577 5.87913 112.577 6.96786V14.9978H92.561Z" fill="black"/>
<path d="M150.1 0H144.83L135.091 11.2472L125.347 0H120.082V1.18205L131.542 14.9222L120.082 28.6669V30H125.223L135.091 18.7483L144.959 30H150.1V28.6669L138.639 14.9222L150.1 1.18205V0Z" fill="black"/>
</svg>
