<?xml version="1.0" encoding="UTF-8"?><svg id="uuid-542915d1-185b-4474-a227-2c46305f38c3" xmlns="http://www.w3.org/2000/svg" viewBox="0 0 322.837 79.676"><path d="M140.274,15.879h-7.538v44.931h7.538V15.879Z" fill="#231f20"/><path d="M115.003,15.879h-28.608c-4.589,0-8.307,3.694-8.307,8.253v36.671h7.537v-14.975h30.156v14.975h7.538V24.132c0-4.559-3.719-8.253-8.308-8.253h-.006ZM85.618,38.341v-12.026c0-1.631,1.326-2.948,2.968-2.948h24.22c1.642,0,2.968,1.318,2.968,2.948v12.026h-30.156Z" fill="#231f20"/><path d="M165.31,41.756c0-.912-.313-1.586-.94-2.023-.627-.436-1.453-.654-2.479-.654-1.217,0-2.365.256-3.448.77-1.083.512-2.043,1.111-2.879,1.795l-6.555-6.498c1.824-1.748,3.99-3.097,6.498-4.047,2.508-.949,5.092-1.426,7.752-1.426,2.85,0,5.206.399,7.068,1.197,1.861.799,3.334,1.9,4.417,3.307s1.843,3.04,2.28,4.902c.437,1.861.655,3.838.655,5.928v15.789h-11.913v-2.395h-.114c-.76,1.141-1.843,1.957-3.249,2.451-1.406.493-2.773.74-4.104.74-1.179,0-2.385-.17-3.619-.512-1.235-.343-2.357-.893-3.363-1.654-1.008-.76-1.834-1.746-2.479-2.963-.646-1.217-.969-2.717-.969-4.504,0-2.089.541-3.79,1.624-5.102,1.083-1.311,2.46-2.336,4.133-3.078,1.672-.74,3.543-1.244,5.614-1.51,2.07-.266,4.094-.398,6.07-.398v-.115ZM165.424,48.37c-1.938,0-3.497.209-4.674.627-1.179.418-1.768,1.196-1.768,2.336,0,.419.095.77.285,1.055.189.285.437.523.741.713.304.19.636.333.997.428s.693.143.998.143c1.254,0,2.26-.399,3.021-1.197.76-.799,1.141-1.824,1.141-3.078v-1.025h-.741Z" fill="#4c515a"/><path d="M179.616,45.69c0-1.938.294-3.838.883-5.7.589-1.861,1.454-3.534,2.594-5.016,1.141-1.482,2.565-2.679,4.275-3.591s3.686-1.368,5.928-1.368c1.443,0,2.888.276,4.332.826,1.443.552,2.603,1.34,3.478,2.366h.113v-15.504h13.167v43.092h-11.85v-3.135h-.115c-.874,1.216-2.146,2.176-3.819,2.878s-3.44,1.054-5.302,1.054c-2.243,0-4.22-.455-5.93-1.367-1.711-.912-3.137-2.118-4.277-3.619-1.14-1.502-2.005-3.201-2.594-5.102s-.883-3.838-.883-5.814ZM191.814,45.69c0,1.444.417,2.65,1.254,3.619.835.969,2.052,1.453,3.647,1.453,1.558,0,2.802-.492,3.733-1.481.931-.987,1.396-2.185,1.396-3.591,0-1.33-.466-2.488-1.396-3.477-.932-.988-2.176-1.482-3.733-1.482-1.596,0-2.812.494-3.647,1.482-.837.988-1.254,2.146-1.254,3.477Z" fill="#4c515a"/><path d="M236.445,60.795v-15.732c0-1.52-.19-2.622-.57-3.307-.38-.684-1.007-1.025-1.881-1.025-.646,0-1.264.305-1.853.912-.59.607-.883,1.691-.883,3.249v15.903h-13.167v-29.982h12.824v3.307h.114c.38-.494.846-.979,1.396-1.454.551-.475,1.178-.912,1.881-1.312.703-.398,1.491-.721,2.365-.969.874-.246,1.824-.37,2.851-.37,1.976,0,3.686.352,5.13,1.054,1.443.704,2.584,1.796,3.42,3.277.987-1.215,2.203-2.241,3.648-3.077,1.443-.835,3.268-1.254,5.472-1.254,2.128,0,3.885.419,5.272,1.254,1.387.836,2.488,1.881,3.306,3.135s1.387,2.613,1.71,4.075c.323,1.464.485,2.822.485,4.076v18.24h-13.168v-15.961c0-1.633-.199-2.726-.598-3.277-.399-.551-1.018-.826-1.853-.826-.761,0-1.406.352-1.938,1.055s-.798,1.738-.798,3.106v15.903h-13.167Z" fill="#4c515a"/><path d="M271.271,22.149c0-.912.181-1.775.542-2.594.36-.816.854-1.529,1.481-2.137.628-.607,1.358-1.092,2.195-1.454.835-.36,1.729-.542,2.679-.542.912,0,1.767.182,2.564.542.799.362,1.511.847,2.138,1.454s1.121,1.32,1.482,2.137c.36.818.541,1.682.541,2.594,0,.95-.181,1.834-.541,2.65-.361.818-.855,1.521-1.482,2.109-.627.59-1.339,1.055-2.138,1.396-.798.342-1.652.513-2.564.513-.95,0-1.844-.171-2.679-.513-.837-.342-1.567-.807-2.195-1.396-.627-.589-1.121-1.291-1.481-2.109-.361-.816-.542-1.7-.542-2.65ZM271.5,30.813h13.167v29.982h-13.167v-29.982Z" fill="#4c515a"/><path d="M288.485,30.813h12.824v3.307h.114c.757-1.103,1.885-2.062,3.381-2.879,1.496-.816,3.212-1.226,5.145-1.226,2.083,0,3.816.38,5.199,1.14,1.382.761,2.481,1.738,3.296,2.936s1.383,2.537,1.705,4.019.483,2.964.483,4.446v18.24h-13.167v-15.961c0-1.52-.237-2.584-.713-3.191s-1.188-.912-2.137-.912c-.875,0-1.588.352-2.138,1.055-.552.703-.826,1.72-.826,3.049v15.961h-13.167v-29.982Z" fill="#4c515a"/><polygon points="8.034 37.985 0 30.267 4.434 25.651 7.846 28.929 16.932 19.442 21.554 23.87 8.034 37.985" fill="#231f20"/><polygon points="8.034 57.184 0 49.466 4.434 44.851 7.846 48.129 16.933 38.643 21.554 43.07 8.034 57.184" fill="#231f20"/><rect x="24.256" y="15.456" width="23.293" height="6.4" fill="#231f20"/><rect x="24.256" y="34.456" width="23.293" height="6.4" fill="#231f20"/><rect x="24.256" y="53.456" width="23.293" height="6.4" fill="#231f20"/><path d="M53.849,76.274H17.957c-4.435,0-8.042-3.608-8.042-8.043v-7.429h6.4v7.429c0,.906.737,1.643,1.643,1.643h35.892c.906,0,1.643-.736,1.643-1.643V8.043c0-.906-.737-1.643-1.643-1.643H17.957c-.906,0-1.643.736-1.643,1.643v7.836h-6.4v-7.836C9.914,3.608,13.522,0,17.957,0h35.892c4.435,0,8.043,3.608,8.043,8.043v60.188c0,4.435-3.608,8.043-8.043,8.043Z" fill="#231f20"/><path d="M254.078,69.476v4.8c0,1.08-.869,1.95-1.949,1.95h-6.9v-11.55h1.62v2.851h5.28c1.08,0,1.949.869,1.949,1.949ZM252.458,69.476c0-.18-.15-.33-.33-.33h-4.95c-.18,0-.33.15-.33.33v4.8c0,.181.15.33.33.33h4.95c.18,0,.33-.149.33-.33v-4.8Z" fill="#231f20"/><path d="M263.903,72.926v4.8c0,1.08-.87,1.95-1.95,1.95h-5.369v-1.62h5.369c.181,0,.33-.15.33-.33v-1.5h-5.279c-1.08,0-1.95-.87-1.95-1.95v-6.72h1.62v6.72c0,.181.149.33.33.33h4.949c.181,0,.33-.149.33-.33v-6.72h1.62v5.37Z" fill="#231f20"/><path d="M278.768,65.426c1.08,0,1.95.87,1.95,1.95v8.85h-1.62v-3.78h-7.56v3.78h-1.62v-8.85c0-1.08.87-1.95,1.95-1.95h6.899ZM279.098,70.826v-3.45c0-.18-.15-.33-.33-.33h-6.899c-.181,0-.33.15-.33.33v3.45h7.56Z" fill="#231f20"/><path d="M282.443,65.426h1.62v10.8h-1.62v-10.8Z" fill="#231f20"/><path d="M296.033,65.426h1.935v10.8h-1.619v-8.64l-4.5,5.354-4.5-5.354v8.64h-1.62v-10.8h1.92l4.2,4.995,4.185-4.995Z" fill="#231f20"/><path d="M308.528,65.426c1.08,0,1.95.87,1.95,1.95v8.85h-1.62v-3.78h-7.56v3.78h-1.62v-8.85c0-1.08.87-1.95,1.95-1.95h6.899ZM308.858,70.826v-3.45c0-.18-.15-.33-.33-.33h-6.899c-.181,0-.33.15-.33.33v3.45h7.56Z" fill="#231f20"/><path d="M322.837,65.426v.226l-4.35,5.175,4.35,5.175v.225h-1.92l-3.479-4.14-3.479,4.14h-1.92v-.225l4.334-5.175-4.334-5.175v-.226h1.92l3.479,4.14,3.479-4.14h1.92Z" fill="#231f20"/></svg>