<?xml version="1.0" encoding="UTF-8"?><svg id="uuid-84d69406-56af-4a1d-b2d6-e569dea247c6" xmlns="http://www.w3.org/2000/svg" viewBox="0 0 61.892 76.274"><polygon points="8.034 37.984 0 30.267 4.434 25.651 7.846 28.93 16.933 19.442 21.555 23.87 8.034 37.984" fill="#fff"/><polygon points="8.034 57.184 0 49.466 4.434 44.851 7.846 48.129 16.933 38.643 21.555 43.07 8.034 57.184" fill="#fff"/><rect x="24.256" y="15.456" width="23.293" height="6.4" fill="#fff"/><rect x="24.256" y="34.456" width="23.293" height="6.4" fill="#fff"/><rect x="24.256" y="53.456" width="23.293" height="6.4" fill="#fff"/><path d="M53.849,76.274H17.957c-4.435,0-8.042-3.608-8.042-8.043v-7.429h6.4v7.429c0,.906.736,1.643,1.642,1.643h35.892c.906,0,1.643-.736,1.643-1.643V8.043c0-.906-.737-1.643-1.643-1.643H17.957c-.906,0-1.642.736-1.642,1.643v7.836h-6.4v-7.836C9.914,3.608,13.522,0,17.957,0h35.892c4.435,0,8.043,3.608,8.043,8.043v60.188c0,4.435-3.608,8.043-8.043,8.043Z" fill="#fff"/></svg>