<?xml version="1.0" encoding="UTF-8"?><svg id="uuid-e252f87d-27d1-42e9-aa1f-6b99096cd626" xmlns="http://www.w3.org/2000/svg" viewBox="0 0 57.508 76.374"><path d="M20.06,45.087c-2.4,0-4.346,1.946-4.346,4.346s1.946,4.346,4.346,4.346,4.346-1.946,4.346-4.346-1.947-4.346-4.346-4.346Z" fill="#010101"/><path d="M37.542,45.087c-2.4,0-4.345,1.946-4.345,4.346s1.945,4.346,4.345,4.346,4.346-1.946,4.346-4.346-1.946-4.346-4.346-4.346Z" fill="#010101"/><path d="M29.293,76.374c-8.912,0-16.433-2.998-21.75-8.672C2.679,62.512,0,55.328,0,47.475v-25.62h6.4v25.62c0,6.223,2.064,11.852,5.812,15.851,4.077,4.351,9.983,6.649,17.081,6.648,6.626,0,11.901-1.93,15.678-5.736,3.949-3.979,6.186-10.08,6.136-16.738v-8.934c.032-4.271-.862-10.271-5.298-14.74-3.739-3.767-9.295-5.677-16.516-5.677-4.247.01-5.939.013-5.95.012l-1.492.011-.968-1.136c-1.59-1.865-2.466-4.245-2.466-6.699,0-5.699,4.637-10.336,10.335-10.336s10.336,4.637,10.336,10.336h-6.4c0-2.17-1.765-3.936-3.936-3.936s-3.935,1.766-3.935,3.936c0,.488.091.969.264,1.417.961-.003,2.342.002,4.211-.005,8.989,0,16.074,2.547,21.058,7.569,4.672,4.707,7.213,11.551,7.155,19.272v8.885c.062,8.328-2.851,16.09-7.993,21.271-5.023,5.061-11.826,7.627-20.221,7.628Z" fill="#010101"/></svg>