<?xml version="1.0" encoding="UTF-8"?><svg id="uuid-8ebd267b-ca3c-4113-bb19-26e34a3a20b7" xmlns="http://www.w3.org/2000/svg" viewBox="0 0 259.023 79.539"><path d="M135.353,15.801h-7.538v44.931h7.538V15.801Z" fill="#fff"/><path d="M110.082,15.801h-28.608c-4.589,0-8.307,3.694-8.307,8.253v36.671h7.537v-14.975h30.156v14.975h7.538V24.053c0-4.559-3.719-8.253-8.308-8.253h-.006ZM80.697,38.263v-12.026c0-1.631,1.326-2.948,2.968-2.948h24.22c1.642,0,2.968,1.318,2.968,2.948v12.026h-30.156Z" fill="#fff"/><path d="M20.06,45.087c-2.4,0-4.346,1.946-4.346,4.346s1.946,4.346,4.346,4.346,4.346-1.946,4.346-4.346-1.947-4.346-4.346-4.346Z" fill="#fff"/><path d="M37.542,45.087c-2.4,0-4.345,1.946-4.345,4.346s1.945,4.346,4.345,4.346,4.346-1.946,4.346-4.346-1.946-4.346-4.346-4.346Z" fill="#fff"/><path d="M29.293,76.374c-8.912,0-16.433-2.998-21.751-8.672C2.679,62.512,0,55.328,0,47.474v-25.62h6.4v25.62c0,6.223,2.064,11.853,5.813,15.852,4.076,4.35,9.983,6.649,17.08,6.648,6.626,0,11.901-1.93,15.678-5.736,3.949-3.979,6.186-10.08,6.136-16.739v-8.933c.032-4.271-.862-10.271-5.298-14.741-3.739-3.767-9.295-5.677-16.516-5.677-4.244,0-5.94.013-5.949.013l-1.493.011-.968-1.137c-1.589-1.867-2.464-4.246-2.464-6.699,0-5.698,4.636-10.335,10.335-10.335s10.335,4.637,10.335,10.335h-6.4c0-2.17-1.766-3.935-3.936-3.935s-3.936,1.765-3.936,3.935c0,.544.105,1.017.26,1.418.961-.003,2.342-.006,4.214-.006,8.989,0,16.074,2.547,21.058,7.569,4.672,4.707,7.213,11.552,7.156,19.273v8.884c.062,8.329-2.851,16.091-7.993,21.272-5.023,5.061-11.826,7.627-20.22,7.628Z" fill="#fff"/><path d="M156.089,47.668v13.053h-13.167V17.629h13.167v24.566h.171l7.125-11.457h15.275l-9.689,13.51,9.633,16.473h-15.333l-7.011-13.053h-.171Z" fill="#fff"/><path d="M178.659,22.074c0-.912.181-1.775.542-2.593.36-.817.854-1.529,1.481-2.138.628-.607,1.358-1.092,2.195-1.453.835-.361,1.729-.542,2.679-.542.912,0,1.767.181,2.564.542.799.361,1.511.846,2.138,1.453.627.608,1.121,1.32,1.482,2.138.36.817.541,1.681.541,2.593,0,.951-.181,1.834-.541,2.65-.361.818-.855,1.521-1.482,2.109-.627.59-1.339,1.055-2.138,1.396-.798.342-1.652.514-2.564.514-.95,0-1.844-.172-2.679-.514-.837-.342-1.567-.807-2.195-1.396-.627-.588-1.121-1.291-1.481-2.109-.361-.816-.542-1.699-.542-2.65ZM178.887,30.738h13.167v29.982h-13.167v-29.982Z" fill="#fff"/><path d="M194.676,45.615c0-1.938.294-3.838.883-5.699s1.454-3.534,2.594-5.016c1.141-1.482,2.565-2.68,4.275-3.592s3.686-1.367,5.928-1.367c1.443,0,2.888.275,4.332.826,1.443.551,2.603,1.34,3.478,2.365h.113v-15.504h13.167v43.092h-11.85v-3.135h-.115c-.874,1.217-2.146,2.176-3.819,2.879-1.673.702-3.44,1.054-5.302,1.054-2.243,0-4.22-.456-5.93-1.368-1.711-.912-3.137-2.117-4.277-3.619-1.14-1.501-2.005-3.201-2.594-5.102s-.883-3.838-.883-5.814ZM206.875,45.615c0,1.445.417,2.65,1.254,3.62.835.969,2.052,1.453,3.647,1.453,1.558,0,2.802-.493,3.733-1.481.931-.988,1.396-2.186,1.396-3.592,0-1.329-.466-2.488-1.396-3.477-.932-.988-2.176-1.482-3.733-1.482-1.596,0-2.812.494-3.647,1.482-.837.988-1.254,2.147-1.254,3.477Z" fill="#fff"/><path d="M257.661,51.201c0,2.016-.426,3.705-1.277,5.074-.852,1.367-1.929,2.46-3.234,3.277-1.305.816-2.732,1.404-4.282,1.767-1.552.36-3.028.542-4.431.542-2.584,0-5.121-.371-7.609-1.112-2.489-.741-4.646-1.796-6.47-3.163l6.441-7.467c.912.836,1.985,1.51,3.221,2.023,1.234.513,2.422.77,3.562.77.456,0,.884-.086,1.282-.257.399-.171.599-.484.599-.94,0-.494-.352-.884-1.055-1.168-.703-.285-1.929-.637-3.677-1.055-.95-.229-1.919-.561-2.906-.998-.989-.437-1.891-1.016-2.708-1.738-.817-.722-1.491-1.605-2.023-2.65s-.798-2.289-.798-3.734c0-1.938.428-3.59,1.282-4.959.855-1.367,1.938-2.479,3.249-3.334,1.312-.855,2.736-1.482,4.275-1.881s2.992-.599,4.36-.599c2.317,0,4.617.343,6.897,1.026,2.279.684,4.331,1.634,6.155,2.85l-6.155,7.354c-.951-.607-1.92-1.084-2.907-1.426-.989-.342-1.958-.513-2.907-.513-.646,0-1.179.085-1.596.257-.419.171-.627.504-.627.997,0,.38.235.675.709.884.473.209,1.561.484,3.264.826,1.172.229,2.316.58,3.434,1.055,1.116.476,2.118,1.083,3.009,1.824.889.74,1.599,1.645,2.128,2.707.529,1.064.795,2.318.795,3.762Z" fill="#fff"/><path d="M190.263,69.34v4.799c0,1.08-.869,1.951-1.949,1.951h-6.9v-11.551h1.62v2.852h5.28c1.08,0,1.949.869,1.949,1.949ZM188.644,69.34c0-.18-.15-.33-.33-.33h-4.95c-.18,0-.33.15-.33.33v4.799c0,.182.15.33.33.33h4.95c.18,0,.33-.148.33-.33v-4.799Z" fill="#fff"/><path d="M200.089,72.789v4.801c0,1.08-.87,1.949-1.95,1.949h-5.369v-1.619h5.369c.181,0,.33-.15.33-.33v-1.5h-5.279c-1.08,0-1.95-.871-1.95-1.951v-6.719h1.62v6.719c0,.182.149.33.33.33h4.949c.181,0,.33-.148.33-.33v-6.719h1.62v5.369Z" fill="#fff"/><path d="M214.954,65.289c1.08,0,1.95.871,1.95,1.951v8.85h-1.62v-3.781h-7.56v3.781h-1.62v-8.85c0-1.08.87-1.951,1.95-1.951h6.899ZM215.284,70.689v-3.449c0-.18-.15-.33-.33-.33h-6.899c-.181,0-.33.15-.33.33v3.449h7.56Z" fill="#fff"/><path d="M218.629,65.289h1.62v10.801h-1.62v-10.801Z" fill="#fff"/><path d="M232.219,65.289h1.935v10.801h-1.619v-8.641l-4.5,5.355-4.5-5.355v8.641h-1.62v-10.801h1.92l4.2,4.996,4.185-4.996Z" fill="#fff"/><path d="M244.714,65.289c1.08,0,1.95.871,1.95,1.951v8.85h-1.62v-3.781h-7.56v3.781h-1.62v-8.85c0-1.08.87-1.951,1.95-1.951h6.899ZM245.044,70.689v-3.449c0-.18-.15-.33-.33-.33h-6.899c-.181,0-.33.15-.33.33v3.449h7.56Z" fill="#fff"/><path d="M259.023,65.289v.227l-4.35,5.174,4.35,5.176v.225h-1.92l-3.479-4.141-3.479,4.141h-1.92v-.225l4.334-5.176-4.334-5.174v-.227h1.92l3.479,4.141,3.479-4.141h1.92Z" fill="#fff"/></svg>