<?xml version="1.0" encoding="UTF-8"?><svg id="uuid-eb773064-d99a-4a75-92bb-7fb1c6a6ec00" xmlns="http://www.w3.org/2000/svg" viewBox="0 0 236.195 76.329"><path d="M141.174,15.749h-7.538v44.931h7.538V15.749Z" fill="#fff"/><path d="M115.903,15.749h-28.608c-4.589,0-8.307,3.694-8.307,8.253v36.671h7.537v-14.975h30.156v14.975h7.538V24.002c0-4.559-3.719-8.253-8.308-8.253h-.006ZM86.518,38.211v-12.026c0-1.631,1.326-2.948,2.968-2.948h24.22c1.642,0,2.968,1.318,2.968,2.948v12.026h-30.156Z" fill="#fff"/><path d="M148.757,17.588h13.451v43.092h-13.451V17.588Z" fill="#fff"/><path d="M165.799,22.035c0-.912.181-1.776.542-2.594.36-.816.854-1.529,1.481-2.138.628-.607,1.358-1.092,2.195-1.454.835-.36,1.729-.541,2.679-.541.912,0,1.767.181,2.564.541.799.362,1.511.847,2.138,1.454.627.608,1.121,1.321,1.482,2.138.36.817.541,1.682.541,2.594,0,.949-.181,1.834-.541,2.65-.361.817-.855,1.52-1.482,2.108-.627.59-1.339,1.055-2.138,1.396-.798.343-1.652.513-2.564.513-.95,0-1.844-.17-2.679-.513-.837-.342-1.567-.807-2.195-1.396-.627-.589-1.121-1.291-1.481-2.108-.361-.816-.542-1.701-.542-2.65ZM166.028,30.699h13.167v29.981h-13.167v-29.981Z" fill="#fff"/><path d="M203.134,26.224c-.456-.095-.911-.143-1.367-.143-1.293,0-2.195.398-2.708,1.197-.513.797-.77,1.805-.77,3.021v.399h6.327v9.404h-6.327v20.577h-13.167v-20.577h-5.13v-9.404h5.13v-.685c0-1.861.219-3.647.658-5.358.438-1.709,1.192-3.221,2.262-4.531,1.068-1.311,2.509-2.346,4.322-3.106,1.812-.76,4.091-1.14,6.837-1.14.874,0,1.89.066,3.05.199,1.158.134,2.138.352,2.936.656l-.855,9.86c-.342-.151-.741-.275-1.197-.37Z" fill="#fff"/><path d="M236.195,45.974c0,.494-.01.998-.029,1.511s-.048.94-.085,1.282h-20.178c.037.533.218,1.008.541,1.426.322.418.722.779,1.197,1.082.475.305,1.006.533,1.596.684.589.152,1.188.229,1.796.229,1.216,0,2.231-.219,3.049-.655s1.435-.921,1.853-1.454l9.349,4.731c-1.331,2.166-3.259,3.876-5.786,5.13s-5.463,1.881-8.807,1.881c-2.166,0-4.274-.342-6.326-1.025-2.053-.684-3.867-1.701-5.444-3.05s-2.841-3.03-3.79-5.044c-.95-2.014-1.425-4.352-1.425-7.012,0-2.47.437-4.702,1.311-6.697s2.062-3.686,3.562-5.073c1.501-1.387,3.268-2.46,5.301-3.22s4.209-1.141,6.527-1.141c2.355,0,4.503.408,6.44,1.226,1.938.817,3.6,1.958,4.987,3.42,1.387,1.464,2.46,3.202,3.221,5.216.76,2.014,1.141,4.199,1.141,6.555ZM224.851,41.699c0-1.062-.39-1.938-1.168-2.621-.779-.685-1.834-1.026-3.164-1.026-1.444,0-2.564.399-3.362,1.196-.799.799-1.254,1.616-1.368,2.451h9.062Z" fill="#fff"/><path d="M50.261,16.958c-5.193-2.268-10.702-1.833-15.977,1.252.528-6.125,2.201-11.209,4.632-14.032l-4.849-4.178c-3.472,4.03-5.685,10.627-6.231,18.576-.156,2.259.955,4.383,2.898,5.543,1.951,1.163,4.357,1.132,6.281-.081,3.654-2.306,7.249-2.716,10.684-1.215,5.009,2.188,8.096,7.273,8.846,14.044h-11.593l-8.627,12.727-17.123-30.775-8.827,18.049H0v6.4h14.37l5.198-10.629,16.22,29.152,12.558-18.523h8.233c-.094,1.076-.222,2.17-.414,3.296-1.643,9.608-9.77,23.365-13.803,23.365-5.774,0-9.634-2.457-9.655-2.47l-1.768-1.155-1.765,1.144c-.039.024-3.898,2.481-9.672,2.481-2.612,0-8.095-6.737-11.785-16.405-.6-1.573-1.095-3.086-1.47-4.497L.063,50.673c.432,1.624.996,3.352,1.675,5.133.802,2.101,8.113,20.523,17.765,20.523,5.208,0,9.253-1.518,11.43-2.567,2.177,1.05,6.222,2.567,11.43,2.567,10.033,0,18.645-20.108,20.111-28.688,2.487-14.551-2.193-26.308-12.213-30.684Z" fill="#fff"/><path d="M7.345,15.749c-2.4,0-4.345,1.946-4.345,4.346s1.945,4.346,4.345,4.346,4.346-1.946,4.346-4.346-1.946-4.346-4.346-4.346Z" fill="#fff"/></svg>