<?xml version="1.0" encoding="UTF-8"?><svg id="uuid-0a6ac550-0ab3-4e78-8687-3cc5dfd8b019" xmlns="http://www.w3.org/2000/svg" viewBox="0 0 63.131 76.329"><path d="M50.261,16.958c-5.193-2.268-10.702-1.833-15.977,1.252.528-6.125,2.201-11.209,4.632-14.032l-4.849-4.178c-3.472,4.03-5.685,10.627-6.231,18.576-.156,2.259.955,4.383,2.898,5.543,1.951,1.163,4.357,1.132,6.281-.081,3.654-2.306,7.249-2.716,10.684-1.215,5.009,2.188,8.096,7.273,8.846,14.044h-11.593l-8.627,12.727-17.123-30.775-8.827,18.049H0v6.4h14.37l5.198-10.629,16.22,29.152,12.558-18.523h8.233c-.094,1.076-.222,2.17-.414,3.296-1.643,9.608-9.77,23.365-13.803,23.365-5.774,0-9.634-2.457-9.655-2.47l-1.768-1.155-1.765,1.144c-.039.024-3.898,2.481-9.672,2.481-2.612,0-8.095-6.737-11.785-16.405-.6-1.573-1.095-3.086-1.47-4.497L.063,50.673c.432,1.624.996,3.352,1.675,5.133.802,2.101,8.113,20.523,17.765,20.523,5.208,0,9.253-1.518,11.43-2.567,2.177,1.05,6.222,2.567,11.43,2.567,10.033,0,18.645-20.108,20.111-28.688,2.487-14.551-2.193-26.308-12.213-30.684Z" fill="#fff"/><path d="M7.345,15.749c-2.4,0-4.345,1.946-4.345,4.346s1.945,4.346,4.345,4.346,4.346-1.946,4.346-4.346-1.946-4.346-4.346-4.346Z" fill="#fff"/></svg>