<?xml version="1.0" encoding="UTF-8"?><svg id="uuid-b6a4c753-61b3-40d4-8057-e39639105eec" xmlns="http://www.w3.org/2000/svg" viewBox="0 0 236.195 79.7"><path d="M141.174,15.749h-7.538v44.931h7.538V15.749Z" fill="#231f20"/><path d="M115.903,15.749h-28.608c-4.589,0-8.307,3.694-8.307,8.253v36.671h7.537v-14.975h30.156v14.975h7.538V24.002c0-4.559-3.719-8.253-8.308-8.253h-.006ZM86.518,38.211v-12.026c0-1.631,1.326-2.948,2.968-2.948h24.22c1.642,0,2.968,1.318,2.968,2.948v12.026h-30.156Z" fill="#231f20"/><path d="M148.757,17.588h13.451v43.092h-13.451V17.588Z" fill="#231f20"/><path d="M165.799,22.034c0-.912.181-1.776.542-2.594.36-.816.854-1.529,1.481-2.138.628-.607,1.358-1.092,2.195-1.454.835-.36,1.729-.541,2.679-.541.912,0,1.767.181,2.564.541.799.362,1.511.847,2.138,1.454.627.608,1.121,1.321,1.482,2.138.36.817.541,1.682.541,2.594,0,.949-.181,1.834-.541,2.65-.361.817-.855,1.52-1.482,2.108-.627.59-1.339,1.055-2.138,1.396-.798.343-1.652.513-2.564.513-.95,0-1.844-.17-2.679-.513-.837-.342-1.567-.807-2.195-1.396-.627-.589-1.121-1.291-1.481-2.108-.361-.816-.542-1.701-.542-2.65ZM166.028,30.698h13.167v29.981h-13.167v-29.981Z" fill="#231f20"/><path d="M203.134,26.224c-.456-.095-.911-.143-1.367-.143-1.293,0-2.195.398-2.708,1.197-.513.797-.77,1.805-.77,3.021v.399h6.327v9.404h-6.327v20.577h-13.167v-20.577h-5.13v-9.404h5.13v-.685c0-1.861.219-3.647.658-5.358.438-1.709,1.192-3.221,2.262-4.531,1.068-1.311,2.509-2.346,4.322-3.106,1.812-.76,4.091-1.14,6.837-1.14.874,0,1.89.066,3.05.199,1.158.134,2.138.352,2.936.656l-.855,9.86c-.342-.151-.741-.275-1.197-.37Z" fill="#231f20"/><path d="M236.195,45.974c0,.494-.01.998-.029,1.511s-.048.94-.085,1.282h-20.178c.037.533.218,1.008.541,1.426.322.418.722.779,1.197,1.082.475.305,1.006.533,1.596.684.589.152,1.188.229,1.796.229,1.216,0,2.231-.219,3.049-.655s1.435-.921,1.853-1.454l9.349,4.731c-1.331,2.166-3.259,3.876-5.786,5.13s-5.463,1.881-8.807,1.881c-2.166,0-4.274-.342-6.326-1.025-2.053-.684-3.867-1.701-5.444-3.05s-2.841-3.03-3.79-5.044c-.95-2.014-1.425-4.352-1.425-7.012,0-2.47.437-4.702,1.311-6.697s2.062-3.686,3.562-5.073c1.501-1.387,3.268-2.46,5.301-3.22s4.209-1.141,6.527-1.141c2.355,0,4.503.408,6.44,1.226,1.938.817,3.6,1.958,4.987,3.42,1.387,1.464,2.46,3.202,3.221,5.216.76,2.014,1.141,4.199,1.141,6.555ZM224.851,41.698c0-1.062-.39-1.938-1.168-2.621-.779-.685-1.834-1.026-3.164-1.026-1.444,0-2.564.399-3.362,1.196-.799.799-1.254,1.616-1.368,2.451h9.062Z" fill="#231f20"/><path d="M50.261,16.957c-5.198-2.272-10.706-1.833-15.977,1.253.527-6.125,2.201-11.209,4.633-14.032l-4.85-4.178c-3.471,4.03-5.684,10.627-6.23,18.575-.155,2.259.955,4.383,2.897,5.543,1.951,1.164,4.357,1.134,6.282-.08,3.653-2.307,7.247-2.717,10.683-1.216,5.009,2.188,8.096,7.272,8.846,14.044h-11.593l-8.627,12.727-17.123-30.775-8.826,18.049H0v6.4h14.37l5.198-10.629,16.22,29.153,12.558-18.524h8.233c-.094,1.076-.222,2.171-.414,3.297-1.642,9.607-9.769,23.364-13.803,23.364-5.774,0-9.633-2.457-9.655-2.47l-1.768-1.155-1.765,1.144c-.039.024-3.898,2.481-9.672,2.481-2.612,0-8.095-6.737-11.785-16.404-.601-1.573-1.095-3.087-1.471-4.497L.063,50.673c.433,1.624.996,3.351,1.676,5.133.802,2.101,8.112,20.522,17.764,20.522,5.208,0,9.252-1.518,11.43-2.567,2.177,1.05,6.222,2.567,11.43,2.567,10.034,0,18.645-20.107,20.111-28.687,2.487-14.551-2.193-26.309-12.213-30.685Z" fill="#231f20"/><path d="M7.345,15.749c-2.4,0-4.345,1.946-4.345,4.346s1.945,4.346,4.345,4.346,4.346-1.946,4.346-4.346-1.946-4.346-4.346-4.346Z" fill="#231f20"/><path d="M167.125,69.499v4.801c0,1.08-.869,1.949-1.949,1.949h-6.9v-11.549h1.62v2.85h5.28c1.08,0,1.949.869,1.949,1.949ZM165.505,69.499c0-.18-.15-.33-.33-.33h-4.95c-.18,0-.33.15-.33.33v4.801c0,.18.15.33.33.33h4.95c.18,0,.33-.15.33-.33v-4.801Z" fill="#231f20"/><path d="M176.95,72.95v4.799c0,1.08-.87,1.951-1.95,1.951h-5.369v-1.621h5.369c.181,0,.33-.15.33-.33v-1.5h-5.279c-1.08,0-1.95-.869-1.95-1.949v-6.721h1.62v6.721c0,.18.149.33.33.33h4.949c.181,0,.33-.15.33-.33v-6.721h1.62v5.371Z" fill="#231f20"/><path d="M191.815,65.45c1.08,0,1.95.869,1.95,1.949v8.85h-1.62v-3.779h-7.56v3.779h-1.62v-8.85c0-1.08.87-1.949,1.95-1.949h6.899ZM192.145,70.851v-3.451c0-.18-.15-.33-.33-.33h-6.899c-.181,0-.33.15-.33.33v3.451h7.56Z" fill="#231f20"/><path d="M195.49,65.45h1.62v10.799h-1.62v-10.799Z" fill="#231f20"/><path d="M209.08,65.45h1.935v10.799h-1.619v-8.639l-4.5,5.354-4.5-5.354v8.639h-1.62v-10.799h1.92l4.2,4.994,4.185-4.994Z" fill="#231f20"/><path d="M221.575,65.45c1.08,0,1.95.869,1.95,1.949v8.85h-1.62v-3.779h-7.56v3.779h-1.62v-8.85c0-1.08.87-1.949,1.95-1.949h6.899ZM221.905,70.851v-3.451c0-.18-.15-.33-.33-.33h-6.899c-.181,0-.33.15-.33.33v3.451h7.56Z" fill="#231f20"/><path d="M235.884,65.45v.225l-4.35,5.176,4.35,5.174v.225h-1.92l-3.479-4.139-3.479,4.139h-1.92v-.225l4.334-5.174-4.334-5.176v-.225h1.92l3.479,4.139,3.479-4.139h1.92Z" fill="#231f20"/></svg>