<?xml version="1.0" encoding="UTF-8"?><svg id="uuid-3a1f3452-36e1-4e9b-afa7-24142ac33cbf" xmlns="http://www.w3.org/2000/svg" viewBox="0 0 318.861 76.424"><path d="M207.678,15.807h-1.89l-16.957,19.913-16.964-19.913h-9.42v44.931h7.537V24.898l18.847,22.735,18.847-22.735v35.839h7.537V15.807h-7.537Z" fill="#231f20"/><path d="M154.911,15.807h-7.538v44.931h7.538V15.807Z" fill="#231f20"/><path d="M129.64,15.807h-28.608c-4.589,0-8.307,3.694-8.307,8.253v36.671h7.537v-14.975h30.156v14.975h7.538V24.059c0-4.559-3.719-8.253-8.308-8.253h-.006ZM100.255,38.269v-12.026c0-1.631,1.326-2.948,2.968-2.948h24.22c1.642,0,2.968,1.318,2.968,2.948v12.026h-30.156Z" fill="#231f20"/><path d="M261.559,15.807h-28.608c-4.589,0-8.307,3.694-8.307,8.253v36.671h7.537v-14.975h30.156v14.975h7.538V24.059c0-4.559-3.719-8.253-8.308-8.253h-.006ZM232.173,38.269v-12.026c0-1.631,1.326-2.948,2.968-2.948h24.22c1.642,0,2.968,1.318,2.968,2.948v12.026h-30.156Z" fill="#231f20"/><path d="M318.861,15.807h-7.939l-14.673,16.845-14.68-16.845h-7.933v1.77l17.266,20.578-17.266,20.585v1.997h7.745l14.867-16.852,14.866,16.852h7.745v-1.997l-17.266-20.585,17.266-20.578v-1.77Z" fill="#231f20"/><path d="M61.423,22.605h-7.455v-6.997c0-8.606-7.001-15.608-15.608-15.608s-15.608,7.002-15.608,15.608v6.997h-7.146c-8.606,0-15.608,7.002-15.608,15.608s7.002,15.608,15.608,15.608h7.146v6.997c0,8.606,7.002,15.608,15.608,15.608s15.608-7.002,15.608-15.607v-6.997h7.455c8.606,0,15.608-7.002,15.608-15.608s-7.002-15.608-15.608-15.608ZM15.608,47.373c-5.051,0-9.161-4.109-9.161-9.161s4.109-9.161,9.161-9.161h7.146v18.321h-7.146ZM47.521,60.817c0,5.051-4.109,9.161-9.161,9.161s-9.161-4.109-9.161-9.161v-6.997h14.465v-6.447h-14.465V15.608c0-5.051,4.109-9.161,9.161-9.161s9.161,4.109,9.161,9.161v10.122c-2.607-1.913-5.821-3.043-9.295-3.043h-5.119v6.447h5.119c5.127,0,9.298,4.171,9.298,9.298l-.004,22.386ZM61.423,47.373h-7.453v-8.941c.001-3.512-1.154-6.758-3.105-9.38h10.558c5.051,0,9.161,4.11,9.161,9.161s-4.109,9.161-9.161,9.161Z" fill="#231f20"/></svg>