<?xml version="1.0" encoding="UTF-8"?><svg id="uuid-d3358a57-05b5-4cb0-8bf9-ff82d9bc88bf" xmlns="http://www.w3.org/2000/svg" viewBox="0 0 230.384 75.391"><path d="M131.717,15.293h-7.538v44.931h7.538V15.293Z" fill="#fff"/><path d="M106.447,15.293h-28.608c-4.589,0-8.307,3.694-8.307,8.253v36.671h7.537v-14.975h30.156v14.975h7.538V23.546c0-4.559-3.719-8.253-8.308-8.253h-.006ZM77.061,37.755v-12.026c0-1.631,1.326-2.948,2.968-2.948h24.22c1.642,0,2.968,1.318,2.968,2.948v12.026h-30.156Z" fill="#fff"/><path d="M160.162,60.204c-1.482,0-2.945-.275-4.39-.826s-2.622-1.32-3.533-2.309h-.114v16.018h-13.053V29.425h12.368v3.021h.114c1.102-1.254,2.432-2.204,3.99-2.851,1.558-.645,3.078-.969,4.56-.969,2.242,0,4.219.456,5.929,1.368s3.135,2.108,4.274,3.591c1.141,1.482,2.004,3.154,2.594,5.016.589,1.863.884,3.763.884,5.701,0,1.976-.295,3.914-.884,5.813-.59,1.9-1.453,3.601-2.594,5.102-1.14,1.501-2.556,2.708-4.246,3.62-1.691.911-3.658,1.367-5.899,1.367ZM161.587,44.302c0-1.33-.419-2.488-1.254-3.478-.837-.987-2.052-1.481-3.648-1.481-1.559,0-2.803.494-3.733,1.481-.932.989-1.396,2.147-1.396,3.478,0,1.406.465,2.604,1.396,3.59.931.989,2.175,1.482,3.733,1.482,1.597,0,2.812-.484,3.648-1.453.835-.969,1.254-2.176,1.254-3.619Z" fill="#fff"/><path d="M207.642,44.7c0,.494-.01.998-.029,1.511s-.048.94-.085,1.282h-20.178c.037.533.218,1.008.541,1.426.322.418.722.779,1.197,1.082.475.305,1.006.533,1.596.684.589.152,1.188.229,1.796.229,1.216,0,2.231-.219,3.049-.655s1.435-.921,1.853-1.454l9.349,4.731c-1.331,2.166-3.259,3.876-5.786,5.13s-5.463,1.881-8.807,1.881c-2.166,0-4.274-.342-6.326-1.025-2.053-.684-3.867-1.701-5.444-3.05s-2.841-3.03-3.79-5.044c-.95-2.014-1.425-4.352-1.425-7.012,0-2.47.437-4.702,1.311-6.697s2.062-3.686,3.562-5.073c1.501-1.387,3.268-2.46,5.301-3.22s4.209-1.141,6.527-1.141c2.355,0,4.503.408,6.44,1.226,1.938.817,3.6,1.958,4.987,3.42,1.387,1.464,2.46,3.202,3.221,5.216.76,2.014,1.141,4.199,1.141,6.555ZM196.299,40.425c0-1.062-.39-1.938-1.168-2.621-.779-.685-1.834-1.026-3.164-1.026-1.444,0-2.564.399-3.362,1.196-.799.799-1.254,1.616-1.368,2.451h9.062Z" fill="#fff"/><path d="M223.032,60.204c-4.028,0-7.011-.863-8.949-2.594-1.938-1.729-2.907-4.417-2.907-8.064v-10.717h-4.218v-9.404h4.161v-6.727h12.768v6.727h6.498v9.404h-6.498v7.98c0,1.444.313,2.422.94,2.936.627.513,1.491.77,2.594.77.418,0,.855-.037,1.312-.114.456-.075.816-.151,1.083-.228v9.006c-.685.303-1.645.55-2.879.74-1.235.189-2.536.285-3.904.285Z" fill="#fff"/><path d="M53.337,5.573c0-2.228-1.264-4.174-3.298-5.081-2.034-.903-4.327-.543-5.983.944l-11.453,13.428c-1.722-.249-3.522-.39-5.413-.39l-10.402.013.013,6.4,10.389-.013c3.39,0,6.414.471,8.99,1.4,8.625,3.112,10.524,10.617,10.773,15.648.008,4.571.019,8.465.036,10.662.045,6.054-1.983,11.597-5.566,15.206-3.423,3.449-8.211,5.198-14.232,5.198-6.453,0-11.818-2.085-15.516-6.03-3.401-3.63-5.274-8.743-5.274-14.398V7.689l5.938,6.275,4.649-4.398L9.467,1.618l-.184-.18C7.626-.053,5.333-.414,3.299.492S0,3.346,0,5.573v42.988c0,7.287,2.488,13.955,7.004,18.774,4.939,5.27,11.918,8.055,20.184,8.055h.002c7.679,0,14.171-2.452,18.774-7.09,4.776-4.812,7.482-12.016,7.424-19.764l-.051-42.964ZM39.445,16.697l7.492-8.812c0,2.851,0,8.038,0,13.832-2.052-2.112-4.564-3.806-7.493-5.02Z" fill="#fff"/><path d="M18.658,40.027c-2.206,0-3.996,1.789-3.996,3.996s1.789,3.996,3.996,3.996,3.996-1.789,3.996-3.996-1.79-3.996-3.996-3.996Z" fill="#fff"/><path d="M34.731,40.027c-2.206,0-3.995,1.789-3.995,3.996s1.789,3.996,3.995,3.996,3.996-1.789,3.996-3.996-1.789-3.996-3.996-3.996Z" fill="#fff"/><path d="M29.486,52.959h-5.627c-.659,0-1.261.362-1.567.946-.305.584-.268,1.279.102,1.826l2.809,4.125c.333.482.88.779,1.464.779s1.131-.287,1.465-.779l2.809-4.125c.371-.547.408-1.242.102-1.826s-.908-.946-1.567-.946h.01Z" fill="#fff"/></svg>