<?xml version="1.0" encoding="UTF-8"?><svg id="uuid-86d67bd5-f8a4-410d-991c-dba57a186a9d" xmlns="http://www.w3.org/2000/svg" viewBox="0 0 316.435 79.832"><path d="M134.369,14.925h-7.538v44.931h7.538V14.925Z" fill="#fff"/><path d="M109.099,14.925h-28.608c-4.589,0-8.307,3.694-8.307,8.253v36.671h7.537v-14.975h30.156v14.975h7.538V23.178c0-4.559-3.719-8.253-8.308-8.253h-.006ZM79.713,37.387v-12.026c0-1.631,1.326-2.948,2.968-2.948h24.22c1.642,0,2.968,1.318,2.968,2.948v12.026h-30.156Z" fill="#fff"/><path d="M169.436,48.995c0,2.016-.426,3.705-1.277,5.074-.852,1.367-1.929,2.46-3.234,3.277-1.305.816-2.732,1.404-4.282,1.767-1.552.36-3.028.542-4.431.542-2.584,0-5.121-.371-7.609-1.112-2.489-.741-4.646-1.796-6.47-3.163l6.441-7.467c.912.836,1.985,1.51,3.221,2.023,1.234.513,2.422.77,3.562.77.456,0,.884-.086,1.282-.257.399-.171.599-.484.599-.94,0-.494-.352-.884-1.055-1.168-.703-.285-1.929-.637-3.677-1.055-.95-.229-1.919-.561-2.906-.998-.989-.437-1.891-1.016-2.708-1.738-.817-.722-1.491-1.605-2.023-2.65s-.798-2.289-.798-3.734c0-1.938.428-3.59,1.282-4.959.855-1.367,1.938-2.479,3.249-3.334,1.312-.855,2.736-1.482,4.275-1.881s2.992-.599,4.36-.599c2.317,0,4.617.343,6.897,1.026,2.279.684,4.331,1.634,6.155,2.85l-6.155,7.354c-.951-.607-1.92-1.084-2.907-1.426-.989-.342-1.958-.513-2.907-.513-.646,0-1.179.085-1.596.257-.419.171-.627.504-.627.997,0,.38.235.675.709.884.473.209,1.561.484,3.264.826,1.172.229,2.316.58,3.434,1.055,1.116.476,2.118,1.083,3.009,1.824.889.74,1.599,1.645,2.128,2.707.529,1.064.795,2.318.795,3.762Z" fill="#fff"/><path d="M203.179,43.808c0,.494-.01.997-.029,1.511-.02.513-.048.94-.085,1.282h-20.178c.037.532.218,1.007.541,1.425.322.419.722.779,1.197,1.084.475.304,1.006.531,1.596.684.589.152,1.188.228,1.796.228,1.216,0,2.231-.218,3.049-.655.817-.437,1.435-.921,1.853-1.453l9.349,4.73c-1.331,2.166-3.259,3.876-5.786,5.13-2.527,1.255-5.463,1.882-8.807,1.882-2.166,0-4.274-.343-6.326-1.027-2.053-.684-3.867-1.699-5.444-3.049-1.577-1.348-2.841-3.029-3.79-5.045-.95-2.014-1.425-4.35-1.425-7.011,0-2.47.437-4.702,1.311-6.697s2.062-3.686,3.562-5.073c1.501-1.387,3.268-2.459,5.301-3.221,2.033-.76,4.209-1.14,6.527-1.14,2.355,0,4.503.409,6.44,1.226,1.938.817,3.6,1.957,4.987,3.42,1.387,1.463,2.46,3.201,3.221,5.215.76,2.016,1.141,4.2,1.141,6.556ZM191.835,39.534c0-1.064-.39-1.938-1.168-2.623-.779-.684-1.834-1.025-3.164-1.025-1.444,0-2.564.398-3.362,1.197-.799.798-1.254,1.615-1.368,2.451h9.062Z" fill="#fff"/><path d="M205.516,28.532h12.824v3.307h.114c.757-1.102,1.885-2.061,3.381-2.879,1.496-.816,3.212-1.225,5.145-1.225,2.083,0,3.816.379,5.199,1.139,1.382.762,2.481,1.739,3.296,2.936.814,1.197,1.383,2.537,1.705,4.02.322,1.481.483,2.963.483,4.445v18.24h-13.167v-15.96c0-1.52-.237-2.584-.713-3.192-.476-.607-1.188-.912-2.137-.912-.875,0-1.588.352-2.138,1.055-.552.704-.826,1.721-.826,3.05v15.96h-13.167v-29.982Z" fill="#fff"/><path d="M241.025,19.868c0-.912.181-1.775.542-2.593.36-.817.854-1.529,1.481-2.138.628-.607,1.358-1.092,2.195-1.453.835-.361,1.729-.542,2.679-.542.912,0,1.767.181,2.564.542.799.361,1.511.846,2.138,1.453.627.608,1.121,1.32,1.482,2.138.36.817.541,1.681.541,2.593,0,.951-.181,1.834-.541,2.65-.361.818-.855,1.521-1.482,2.109-.627.59-1.339,1.055-2.138,1.396-.798.342-1.652.514-2.564.514-.95,0-1.844-.172-2.679-.514-.837-.342-1.567-.807-2.195-1.396-.627-.588-1.121-1.291-1.481-2.109-.361-.816-.542-1.699-.542-2.65ZM241.253,28.532h13.167v29.982h-13.167v-29.982Z" fill="#fff"/><path d="M291.242,43.409c0,2.585-.466,4.884-1.396,6.897-.932,2.015-2.186,3.715-3.763,5.102-1.577,1.388-3.401,2.442-5.472,3.163-2.071.722-4.246,1.084-6.526,1.084-2.243,0-4.399-.362-6.47-1.084-2.071-.721-3.886-1.775-5.443-3.163-1.559-1.387-2.803-3.087-3.733-5.102-.932-2.014-1.396-4.312-1.396-6.897,0-2.545.465-4.816,1.396-6.811.931-1.996,2.175-3.677,3.733-5.045,1.558-1.368,3.372-2.402,5.443-3.106,2.07-.702,4.227-1.055,6.47-1.055,2.28,0,4.455.353,6.526,1.055,2.07.704,3.895,1.738,5.472,3.106s2.831,3.049,3.763,5.045c.931,1.994,1.396,4.266,1.396,6.811ZM274.084,38.507c-1.444,0-2.613.494-3.506,1.481-.894.988-1.339,2.147-1.339,3.478,0,1.406.455,2.603,1.367,3.591s2.09,1.482,3.534,1.482,2.622-.494,3.534-1.482,1.368-2.185,1.368-3.591c0-1.33-.466-2.489-1.396-3.478-.932-.987-2.119-1.481-3.562-1.481Z" fill="#fff"/><path d="M293.806,28.532h12.653v3.42h.114c.646-1.215,1.604-2.223,2.879-3.021,1.272-.798,2.764-1.196,4.474-1.196,1.026,0,1.861.095,2.509.284l-1.026,11.172c-.419-.114-.884-.199-1.396-.257-.513-.057-.979-.085-1.396-.085-1.71,0-3.078.494-4.104,1.481-1.025.989-1.538,2.205-1.538,3.648v14.535h-13.167v-29.982Z" fill="#fff"/><path d="M39.232,40.474c-5.999,0-12.106-1.851-18.182-5.512-5.032-3.032-9.07-6.746-12.001-11.036l5.202-3.555c2.418,3.539,5.8,6.633,10.052,9.194,5.554,3.348,11.035,4.883,16.301,4.566l.38,6.289c-.583.035-1.167.053-1.751.053Z" fill="#fff"/><path d="M29.877,76.315c-8.378,0-15.45-2.812-20.454-8.135-4.579-4.87-7.101-11.609-7.101-18.977v-24.8c-1.523-2.505-2.322-5.36-2.322-8.318C0,7.217,7.235,0,16.128,0c8.158,0,14.92,6.072,15.983,13.923,7.413.391,13.326,2.764,17.598,7.069,4.386,4.419,6.772,10.835,6.717,18.065v10.146c.059,7.794-2.675,15.065-7.499,19.927-4.664,4.699-11.251,7.184-19.048,7.185h-.002ZM16.128,6.301c-5.419,0-9.828,4.39-9.828,9.785,0,2.01.606,3.939,1.753,5.58l.568.812v26.726c0,5.757,1.916,10.964,5.392,14.661,3.783,4.023,9.27,6.15,15.866,6.149,6.168,0,11.073-1.791,14.577-5.322,3.65-3.678,5.717-9.314,5.671-15.465v-10.193c.03-3.942-.795-9.479-4.889-13.604-3.467-3.493-8.635-5.265-15.359-5.265-3.995,0-10.569.013-10.57.013l-.012-6.301s3.143-.006,6.405-.01c-1.012-4.33-4.92-7.566-9.574-7.566Z" fill="#fff"/><path d="M21.152,45.523c-2.245,0-4.065,1.814-4.065,4.052s1.82,4.052,4.065,4.052,4.066-1.814,4.066-4.052-1.821-4.052-4.066-4.052Z" fill="#fff"/><path d="M37.504,45.523c-2.245,0-4.064,1.814-4.064,4.052s1.82,4.052,4.064,4.052,4.066-1.814,4.066-4.052-1.82-4.052-4.066-4.052Z" fill="#fff"/><path d="M247.217,69.631v4.801c0,1.08-.869,1.949-1.949,1.949h-6.9v-11.549h1.62v2.85h5.28c1.08,0,1.949.869,1.949,1.949ZM245.597,69.631c0-.18-.15-.33-.33-.33h-4.95c-.18,0-.33.15-.33.33v4.801c0,.18.15.33.33.33h4.95c.18,0,.33-.15.33-.33v-4.801Z" fill="#fff"/><path d="M257.042,73.082v4.799c0,1.08-.87,1.951-1.95,1.951h-5.369v-1.621h5.369c.181,0,.33-.15.33-.33v-1.5h-5.279c-1.08,0-1.95-.869-1.95-1.949v-6.721h1.62v6.721c0,.18.149.33.33.33h4.949c.181,0,.33-.15.33-.33v-6.721h1.62v5.371Z" fill="#fff"/><path d="M271.907,65.582c1.08,0,1.95.869,1.95,1.949v8.85h-1.62v-3.779h-7.56v3.779h-1.62v-8.85c0-1.08.87-1.949,1.95-1.949h6.899ZM272.237,70.982v-3.451c0-.18-.15-.33-.33-.33h-6.899c-.181,0-.33.15-.33.33v3.451h7.56Z" fill="#fff"/><path d="M275.582,65.582h1.62v10.799h-1.62v-10.799Z" fill="#fff"/><path d="M289.172,65.582h1.935v10.799h-1.619v-8.639l-4.5,5.354-4.5-5.354v8.639h-1.62v-10.799h1.92l4.2,4.994,4.185-4.994Z" fill="#fff"/><path d="M301.667,65.582c1.08,0,1.95.869,1.95,1.949v8.85h-1.62v-3.779h-7.56v3.779h-1.62v-8.85c0-1.08.87-1.949,1.95-1.949h6.899ZM301.997,70.982v-3.451c0-.18-.15-.33-.33-.33h-6.899c-.181,0-.33.15-.33.33v3.451h7.56Z" fill="#fff"/><path d="M315.976,65.582v.225l-4.35,5.176,4.35,5.174v.225h-1.92l-3.479-4.139-3.479,4.139h-1.92v-.225l4.334-5.174-4.334-5.176v-.225h1.92l3.479,4.139,3.479-4.139h1.92Z" fill="#fff"/></svg>