<?xml version="1.0" encoding="UTF-8"?><svg id="uuid-60695d8e-331b-40d5-ade3-cf68c59c111a" xmlns="http://www.w3.org/2000/svg" viewBox="0 0 316.435 76.315"><path d="M134.369,15.752h-7.538v44.931h7.538V15.752Z" fill="#fff"/><path d="M109.098,15.752h-28.608c-4.589,0-8.307,3.694-8.307,8.253v36.671h7.537v-14.975h30.156v14.975h7.538V24.005c0-4.559-3.719-8.253-8.308-8.253h-.006ZM79.713,38.214v-12.026c0-1.631,1.326-2.948,2.968-2.948h24.22c1.642,0,2.968,1.318,2.968,2.948v12.026h-30.156Z" fill="#fff"/><path d="M169.436,49.823c0,2.014-.426,3.705-1.277,5.072-.852,1.368-1.929,2.461-3.234,3.277-1.305.818-2.732,1.406-4.282,1.768-1.552.36-3.028.541-4.431.541-2.584,0-5.121-.37-7.609-1.111-2.489-.74-4.646-1.795-6.47-3.163l6.441-7.468c.912.837,1.985,1.512,3.221,2.023,1.234.514,2.422.77,3.562.77.456,0,.884-.085,1.282-.256.399-.171.599-.484.599-.94,0-.493-.352-.884-1.055-1.169s-1.929-.636-3.677-1.055c-.95-.228-1.919-.56-2.906-.997-.989-.437-1.891-1.017-2.708-1.738s-1.491-1.604-2.023-2.651c-.532-1.044-.798-2.288-.798-3.732,0-1.938.428-3.592,1.282-4.959.855-1.368,1.938-2.48,3.249-3.335,1.312-.854,2.736-1.481,4.275-1.881s2.992-.599,4.36-.599c2.317,0,4.617.342,6.897,1.025,2.279.685,4.331,1.635,6.155,2.851l-6.155,7.353c-.951-.607-1.92-1.082-2.907-1.424-.989-.343-1.958-.514-2.907-.514-.646,0-1.179.086-1.596.256-.419.172-.627.505-.627.998,0,.381.235.676.709.884.473.209,1.561.484,3.264.826,1.172.228,2.316.58,3.434,1.055,1.116.476,2.118,1.083,3.009,1.824.889.741,1.599,1.644,2.128,2.708.529,1.063.795,2.317.795,3.762Z" fill="#fff"/><path d="M203.179,44.635c0,.494-.01.998-.029,1.511s-.048.94-.085,1.282h-20.178c.037.533.218,1.008.541,1.426.322.418.722.779,1.197,1.082.475.305,1.006.533,1.596.684.589.152,1.188.229,1.796.229,1.216,0,2.231-.219,3.049-.655s1.435-.921,1.853-1.454l9.349,4.731c-1.331,2.166-3.259,3.876-5.786,5.13s-5.463,1.881-8.807,1.881c-2.166,0-4.274-.342-6.326-1.025-2.053-.684-3.867-1.701-5.444-3.05s-2.841-3.03-3.79-5.044c-.95-2.014-1.425-4.352-1.425-7.012,0-2.47.437-4.702,1.311-6.697s2.062-3.686,3.562-5.073c1.501-1.387,3.268-2.46,5.301-3.22s4.209-1.141,6.527-1.141c2.355,0,4.503.408,6.44,1.226,1.938.817,3.6,1.958,4.987,3.42,1.387,1.464,2.46,3.202,3.221,5.216.76,2.014,1.141,4.199,1.141,6.555ZM191.835,40.36c0-1.062-.39-1.938-1.168-2.621-.779-.685-1.834-1.026-3.164-1.026-1.444,0-2.564.399-3.362,1.196-.799.799-1.254,1.616-1.368,2.451h9.062Z" fill="#fff"/><path d="M205.516,29.36h12.824v3.306h.114c.757-1.103,1.885-2.062,3.381-2.879,1.496-.816,3.212-1.226,5.145-1.226,2.083,0,3.816.381,5.199,1.141,1.382.76,2.481,1.738,3.296,2.936s1.383,2.536,1.705,4.018c.322,1.482.483,2.965.483,4.446v18.24h-13.167v-15.96c0-1.52-.237-2.584-.713-3.191s-1.188-.912-2.137-.912c-.875,0-1.588.352-2.138,1.055-.552.703-.826,1.719-.826,3.049v15.96h-13.167v-29.981Z" fill="#fff"/><path d="M241.024,20.696c0-.912.181-1.776.542-2.594.36-.816.854-1.529,1.481-2.138.628-.607,1.358-1.092,2.195-1.454.835-.36,1.729-.541,2.679-.541.912,0,1.767.181,2.564.541.799.362,1.511.847,2.138,1.454.627.608,1.121,1.321,1.482,2.138.36.817.541,1.682.541,2.594,0,.949-.181,1.834-.541,2.65-.361.817-.855,1.52-1.482,2.108-.627.59-1.339,1.055-2.138,1.396-.798.343-1.652.513-2.564.513-.95,0-1.844-.17-2.679-.513-.837-.342-1.567-.807-2.195-1.396-.627-.589-1.121-1.291-1.481-2.108-.361-.816-.542-1.701-.542-2.65ZM241.253,29.36h13.167v29.981h-13.167v-29.981Z" fill="#fff"/><path d="M291.241,44.237c0,2.584-.466,4.883-1.396,6.896-.932,2.015-2.186,3.715-3.763,5.102-1.577,1.388-3.401,2.441-5.472,3.164-2.071.721-4.246,1.082-6.526,1.082-2.243,0-4.399-.361-6.47-1.082-2.071-.723-3.886-1.776-5.443-3.164-1.559-1.387-2.803-3.087-3.733-5.102-.932-2.014-1.396-4.312-1.396-6.896,0-2.546.465-4.816,1.396-6.812.931-1.994,2.175-3.676,3.733-5.044,1.558-1.368,3.372-2.403,5.443-3.106,2.07-.703,4.227-1.055,6.47-1.055,2.28,0,4.455.352,6.526,1.055,2.07.703,3.895,1.738,5.472,3.106s2.831,3.05,3.763,5.044c.931,1.996,1.396,4.267,1.396,6.812ZM274.084,39.335c-1.444,0-2.613.494-3.506,1.482-.894.988-1.339,2.146-1.339,3.477,0,1.406.455,2.604,1.367,3.591.912.989,2.09,1.481,3.534,1.481s2.622-.492,3.534-1.481c.912-.987,1.368-2.185,1.368-3.591,0-1.33-.466-2.488-1.396-3.477-.932-.988-2.119-1.482-3.562-1.482Z" fill="#fff"/><path d="M293.806,29.36h12.653v3.42h.114c.646-1.217,1.604-2.224,2.879-3.021,1.272-.798,2.764-1.197,4.474-1.197,1.026,0,1.861.096,2.509.285l-1.026,11.172c-.419-.113-.884-.199-1.396-.256-.513-.058-.979-.086-1.396-.086-1.71,0-3.078.494-4.104,1.482-1.025.988-1.538,2.204-1.538,3.647v14.535h-13.167v-29.981Z" fill="#fff"/><path d="M39.228,40.474c-5.998,0-12.103-1.85-18.178-5.511-5.032-3.033-9.07-6.747-12.001-11.037l5.202-3.555c2.417,3.539,5.799,6.633,10.051,9.195,5.555,3.349,11.04,4.884,16.3,4.565l.381,6.289c-.583.035-1.169.053-1.755.053Z" fill="#fff"/><path d="M29.877,76.315c-8.378,0-15.451-2.812-20.454-8.134-4.58-4.871-7.102-11.609-7.102-18.977v-24.801c-1.522-2.506-2.322-5.359-2.322-8.317C0,7.217,7.235,0,16.128,0c8.157,0,14.919,6.072,15.983,13.923,7.413.391,13.326,2.764,17.598,7.069,4.386,4.419,6.772,10.835,6.718,18.065v10.147c.059,7.794-2.675,15.064-7.499,19.926-4.664,4.699-11.251,7.184-19.048,7.185h-.002ZM16.128,6.301c-5.419,0-9.828,4.39-9.828,9.786,0,2.009.606,3.938,1.753,5.58l.568.812v26.726c0,5.757,1.916,10.963,5.392,14.66,3.783,4.023,9.27,6.15,15.867,6.149,6.168,0,11.072-1.791,14.577-5.321,3.65-3.678,5.717-9.314,5.671-15.465v-10.194c.029-3.942-.795-9.479-4.89-13.604-3.467-3.493-8.634-5.265-15.358-5.265-3.996,0-10.569.014-10.57.014l-.013-6.301s3.143-.006,6.405-.01c-1.012-4.331-4.921-7.567-9.574-7.567Z" fill="#fff"/><path d="M21.152,45.523c-2.245,0-4.065,1.814-4.065,4.052s1.82,4.052,4.065,4.052,4.066-1.814,4.066-4.052-1.821-4.052-4.066-4.052Z" fill="#fff"/><path d="M37.504,45.523c-2.245,0-4.064,1.814-4.064,4.052s1.82,4.052,4.064,4.052,4.066-1.814,4.066-4.052-1.82-4.052-4.066-4.052Z" fill="#fff"/></svg>