<?xml version="1.0" encoding="UTF-8"?><svg id="uuid-30067851-68c1-408f-9df2-b7ebbfbe225a" xmlns="http://www.w3.org/2000/svg" viewBox="0 0 56.428 76.315"><path d="M39.228,40.474c-5.998,0-12.103-1.85-18.178-5.511-5.032-3.033-9.07-6.747-12.001-11.037l5.202-3.555c2.417,3.539,5.799,6.633,10.051,9.195,5.555,3.349,11.04,4.884,16.3,4.565l.381,6.289c-.583.035-1.169.053-1.755.053Z" fill="#010101"/><path d="M29.877,76.315c-8.378,0-15.451-2.812-20.454-8.134-4.58-4.871-7.102-11.609-7.102-18.977v-24.801c-1.522-2.506-2.322-5.359-2.322-8.317C0,7.217,7.235,0,16.128,0c8.157,0,14.919,6.072,15.983,13.923,7.413.391,13.326,2.764,17.598,7.069,4.386,4.419,6.772,10.835,6.718,18.065v10.147c.059,7.794-2.675,15.064-7.499,19.926-4.664,4.699-11.251,7.184-19.048,7.185h-.002ZM16.128,6.301c-5.419,0-9.828,4.39-9.828,9.786,0,2.009.606,3.938,1.753,5.58l.568.812v26.726c0,5.757,1.916,10.963,5.392,14.66,3.783,4.023,9.27,6.15,15.867,6.149,6.168,0,11.072-1.791,14.577-5.321,3.65-3.678,5.717-9.314,5.671-15.465v-10.194c.029-3.942-.795-9.479-4.89-13.604-3.467-3.493-8.634-5.265-15.358-5.265-3.996,0-10.569.014-10.57.014l-.013-6.301s3.143-.006,6.405-.01c-1.012-4.331-4.921-7.567-9.574-7.567Z" fill="#010101"/><path d="M21.152,45.523c-2.245,0-4.065,1.814-4.065,4.052s1.82,4.052,4.065,4.052,4.066-1.814,4.066-4.052-1.821-4.052-4.066-4.052Z" fill="#010101"/><path d="M37.504,45.523c-2.245,0-4.064,1.814-4.064,4.052s1.82,4.052,4.064,4.052,4.066-1.814,4.066-4.052-1.82-4.052-4.066-4.052Z" fill="#010101"/></svg>